<svg width="377" height="154" viewBox="0 0 377 154" fill="none" xmlns="http://www.w3.org/2000/svg">
<path d="M131.095 145.071V137.027H129.48V145.071H131.095Z" fill="#811AC9"/>
<path d="M7.0795 124.337C6.99246 124.401 6.89228 124.444 6.78633 124.464C6.68038 124.484 6.57134 124.48 6.46722 124.452C6.36309 124.424 6.26653 124.373 6.18462 124.302C6.10271 124.232 6.03754 124.144 5.99388 124.046C5.15894 122.164 4.3271 120.391 3.62774 118.567C-5.04116 95.9575 2.20899 69.9613 21.2901 55.056C31.481 47.0953 43.0287 43.1171 55.9334 43.1212C73.7364 43.1111 91.5394 43.1103 109.342 43.1188C111.135 43.1188 111.136 43.1195 111.137 44.9674C111.137 49.0913 111.137 53.2153 111.136 57.3392C111.13 63.6103 107.312 67.4333 101.055 67.4338C86.0863 67.4346 71.1167 67.3436 56.1487 67.4615C42.8942 67.5658 33.1918 73.7372 27.2674 85.5681C23.5323 93.0271 23.3056 100.887 25.8973 108.8C26.211 109.758 26.1172 110.237 25.2806 110.849C19.1895 115.309 13.1446 119.832 7.08423 124.333L7.0795 124.337Z" fill="#811AC9"/>
<path d="M109.128 77.2566C109.25 77.2706 109.363 77.3277 109.447 77.4178C109.532 77.5079 109.581 77.625 109.587 77.7483C109.604 78.0103 109.62 78.2509 109.62 78.4915C109.622 84.9377 109.669 91.3843 109.612 97.8301C109.512 110.39 105.193 122.55 97.3508 132.343C89.509 142.137 78.6036 148.991 66.3976 151.798C44.9274 156.741 22.2296 148.188 9.35386 130.301C9.25014 130.157 9.15626 130.005 9.02572 129.795C8.95537 129.682 8.93002 129.546 8.9547 129.415C8.97939 129.284 9.0523 129.167 9.15896 129.088C15.3287 124.491 21.4814 119.907 27.7187 115.26C27.8295 115.177 27.9679 115.142 28.1046 115.16C28.2413 115.178 28.3656 115.249 28.451 115.358C28.7179 115.698 28.9285 115.966 29.1388 116.235C35.672 124.58 44.1873 128.945 54.8057 128.85C68.725 128.726 81.4492 118.379 84.5118 104.657C85.1248 101.91 85.2723 99.0355 85.3992 96.2093C85.5463 92.9328 85.4228 89.6445 85.4367 86.3614C85.4574 81.4411 89.239 77.3884 94.1209 77.2759C99.1079 77.161 104.1 77.2507 109.089 77.2548C109.102 77.2548 109.115 77.2556 109.128 77.2566Z" fill="#811AC9"/>
<path d="M129.612 81.7888C129.612 81.6285 129.672 81.4739 129.78 81.3556C129.888 81.2374 130.036 81.164 130.195 81.15C130.314 81.1398 130.426 81.133 130.538 81.1332C138.439 81.1482 146.341 81.1191 154.242 81.2058C158.38 81.2512 162.09 82.487 164.915 85.7462C170.064 91.6854 168.079 100.417 160.875 103.463L160.861 103.469C160.742 103.519 160.641 103.604 160.572 103.713C160.502 103.822 160.467 103.949 160.47 104.078C160.474 104.208 160.517 104.333 160.593 104.437C160.669 104.542 160.774 104.621 160.896 104.664C161.165 104.761 161.425 104.86 161.681 104.969C166.28 106.938 168.786 110.498 168.978 115.447C169.187 120.838 166.654 124.809 161.881 127.254C158.976 128.743 155.765 129.064 152.57 129.098C145.187 129.174 137.804 129.122 130.42 129.119C130.349 129.119 130.279 129.116 130.205 129.111C130.044 129.099 129.893 129.026 129.783 128.907C129.673 128.789 129.612 128.633 129.612 128.471V81.7888ZM140.599 114.423C140.599 116.065 140.615 117.706 140.591 119.348C140.582 119.992 140.788 120.308 141.48 120.293C144.869 120.219 148.265 120.266 151.648 120.078C154.592 119.915 156.458 118.454 157.108 116.178C158.162 112.492 155.884 109.088 151.922 108.804C148.466 108.556 144.986 108.665 141.517 108.587C140.743 108.57 140.579 108.945 140.59 109.619C140.615 111.22 140.598 112.821 140.599 114.423ZM141.272 89.432C141.187 89.4295 141.101 89.4442 141.022 89.4752C140.942 89.5063 140.869 89.5531 140.808 89.6128C140.746 89.6725 140.697 89.744 140.664 89.823C140.63 89.902 140.613 89.987 140.613 90.0728C140.612 93.3731 140.603 96.4725 140.644 99.5713C140.646 99.7697 141.094 100.135 141.331 100.132C144.834 100.089 148.346 100.125 151.836 99.8733C154.294 99.6962 155.741 98.0485 156.148 95.5923C156.585 92.9522 154.986 90.0327 152.674 89.8524C148.93 89.5606 145.165 89.5462 141.272 89.432Z" fill="#811AC9"/>
<path d="M368.226 107.957C371.153 114.99 374.047 121.945 377 129.042C376.473 129.075 376.092 129.119 375.712 129.12C372.438 129.125 369.165 129.09 365.892 129.144C364.996 129.159 364.567 128.885 364.243 128.029C362.137 122.463 359.942 116.93 357.849 111.359C357.529 110.507 356.696 109.963 355.79 110.013C354.021 110.108 352.241 110.088 350.47 110.016C349.447 109.974 349.194 110.36 349.2 111.33C349.239 116.734 349.219 122.14 349.219 127.545C349.219 128.017 349.219 128.489 349.219 129.04H338.044V81.2219C338.386 81.189 338.693 81.1332 339.001 81.1338C346.545 81.1484 354.089 81.1322 361.632 81.2181C363.21 81.236 364.799 81.5574 366.358 81.8665C373.108 83.2043 376.248 89.7485 376.476 94.4619C376.769 100.505 374.302 104.888 368.874 107.57C368.699 107.656 368.536 107.77 368.226 107.957ZM349.219 101.87C350.66 101.87 351.895 101.896 353.127 101.864C355.475 101.802 357.84 101.858 360.166 101.586C362.984 101.257 365.146 98.3119 364.995 95.3456C364.841 92.3048 362.349 89.7562 358.798 89.715C355.808 89.6018 353.9 89.7383 351.131 89.7253C349.525 89.7181 349.182 89.7079 349.209 90.6806C349.247 92.04 349.219 93.4012 349.219 94.7617C349.218 97.074 349.219 99.3862 349.219 101.87Z" fill="#811AC9"/>
<path d="M337.006 74.0023V27.6693C337.006 27.4598 337.086 27.2582 337.229 27.1055C337.372 26.9527 337.568 26.8602 337.776 26.8465C337.852 26.8412 337.927 26.838 338.002 26.8382C345.506 26.8523 353.012 26.7963 360.514 26.9247C364.007 26.9844 367.436 27.6021 370.283 29.9239C377.026 35.4225 377.939 48.3186 368.089 53.1078C367.98 53.1604 367.874 53.216 367.76 53.2773C367.58 53.374 367.442 53.5345 367.374 53.7274C367.305 53.9203 367.311 54.1319 367.389 54.321C370.057 60.7374 372.724 67.1506 375.439 73.6807C375.491 73.8048 375.512 73.9398 375.5 74.0739C375.488 74.208 375.443 74.3372 375.37 74.4499C375.296 74.5627 375.197 74.6557 375.079 74.7208C374.962 74.7858 374.83 74.821 374.696 74.8231L374.685 74.8231C371.332 74.8295 367.979 74.7953 364.626 74.8497C363.792 74.8631 363.441 74.5561 363.16 73.8184C360.998 68.1452 358.783 62.492 356.628 56.816C356.327 56.021 355.945 55.697 355.074 55.7203C353.07 55.7738 351.064 55.7484 348.953 55.7419C348.845 55.7416 348.738 55.7626 348.638 55.8038C348.538 55.8451 348.447 55.9057 348.37 55.9822C348.294 56.0588 348.233 56.1498 348.191 56.2499C348.15 56.3501 348.128 56.4575 348.128 56.566V57.3051C348.128 62.7104 348.098 68.116 348.154 73.5207C348.165 74.6053 347.832 74.8711 346.796 74.8506C343.837 74.7922 340.877 74.8213 337.829 74.8265C337.721 74.8266 337.614 74.8054 337.514 74.7641C337.414 74.7227 337.323 74.662 337.247 74.5855C337.17 74.5089 337.11 74.418 337.068 74.318C337.027 74.2179 337.006 74.1107 337.006 74.0023ZM348.131 46.6513C348.132 46.8698 348.218 47.0793 348.372 47.2339C348.526 47.3885 348.734 47.4757 348.952 47.4764C352.127 47.4852 355.168 47.5376 358.205 47.4519C360.621 47.3838 362.307 46.0455 363.304 43.8713C364.962 40.2574 362.734 35.7794 359.042 35.5353C355.706 35.3147 352.351 35.3866 349.004 35.3184C348.43 35.3067 348.12 35.4698 348.123 36.1252C348.139 39.612 348.132 43.099 348.131 46.6513Z" fill="#811AC9"/>
<path d="M129.502 28.6411C129.502 28.1694 129.688 27.717 130.02 27.383C130.353 27.0489 130.803 26.8605 131.273 26.859C136.221 26.8433 141 26.7764 145.773 26.9053C148.384 26.9758 150.999 27.4065 153.582 27.851C155.94 28.257 158.013 29.4194 159.839 30.9561C165.102 35.3831 168.127 40.9574 168.597 47.9141C168.977 53.5456 168.295 58.9389 165.481 63.9072C161.73 70.53 156.037 74.2646 148.447 74.6288C142.475 74.9153 136.483 74.7644 130.5 74.8411C129.691 74.8515 129.452 74.5485 129.492 73.7897C129.538 72.9115 129.502 72.0291 129.502 71.1485C129.502 56.9794 129.502 42.8102 129.502 28.6411ZM140.54 64.0307C140.54 64.5018 140.726 64.9537 141.058 65.2876C141.389 65.6216 141.839 65.8105 142.308 65.813C143.38 65.8186 144.432 65.8234 145.483 65.8002C149.443 65.713 152.63 64.141 154.568 60.5923C158.073 54.1716 158.183 47.6328 154.868 41.0933C153.832 39.0479 152.304 37.4254 150.142 36.5265C147.601 35.4705 144.963 35.5057 142.276 35.5701C141.812 35.581 141.371 35.7735 141.046 36.1065C140.722 36.4394 140.54 36.8865 140.54 37.352V64.0307Z" fill="#811AC9"/>
<path d="M310.898 90.203C310.797 90.2031 310.697 90.2231 310.603 90.2619C310.51 90.3007 310.425 90.3576 310.353 90.4294C310.282 90.5011 310.225 90.5863 310.187 90.68C310.148 90.7738 310.128 90.8742 310.128 90.9756C310.13 93.905 310.137 96.6602 310.122 99.4154C310.116 100.343 310.765 100.156 311.288 100.157C316.356 100.164 321.424 100.166 326.492 100.161C326.733 100.161 326.975 100.161 327.228 100.161C327.433 100.161 327.629 100.243 327.773 100.388C327.918 100.532 327.999 100.729 327.999 100.934V108.279C327.999 108.476 327.924 108.665 327.789 108.809C327.654 108.952 327.47 109.038 327.274 109.05C327.073 109.062 326.869 109.071 326.664 109.072C321.597 109.076 316.529 109.101 311.462 109.054C310.438 109.044 310.071 109.289 310.098 110.383C310.168 113.164 310.132 115.948 310.125 118.817C310.125 118.919 310.145 119.02 310.184 119.114C310.222 119.207 310.279 119.293 310.351 119.365C310.422 119.437 310.507 119.494 310.601 119.533C310.694 119.572 310.794 119.592 310.896 119.592H332.261C332.446 119.59 332.626 119.656 332.766 119.777C332.907 119.899 332.998 120.067 333.023 120.252C333.027 120.283 333.029 120.314 333.029 120.346C333.04 122.948 333.019 125.549 333.05 128.151C333.058 128.868 332.833 129.135 332.092 129.134C321.278 129.116 310.464 129.11 299.651 129.116L299.643 129.116C299.444 129.109 299.256 129.025 299.118 128.881C298.98 128.736 298.904 128.544 298.907 128.344V82.0019C298.907 81.9004 298.927 81.8 298.966 81.7063C299.004 81.6126 299.061 81.5275 299.132 81.4558C299.204 81.3841 299.289 81.3272 299.382 81.2884C299.476 81.2496 299.576 81.2296 299.677 81.2296H332.268C332.369 81.2296 332.47 81.2496 332.563 81.2884C332.656 81.3272 332.741 81.3841 332.813 81.4558C332.884 81.5275 332.941 81.6126 332.98 81.7063C333.018 81.8 333.038 81.9004 333.038 82.0019V87.3516C333.038 90.2029 333.038 90.2029 330.254 90.2029C324.069 90.2029 317.884 90.203 311.699 90.2029L310.898 90.203Z" fill="#811AC9"/>
<path d="M203.591 81.1848H211.174C211.43 81.1824 211.677 81.2814 211.86 81.4603C212.044 81.6392 212.15 81.8836 212.156 82.1405C212.156 82.1438 212.156 82.1468 212.156 82.1497C212.152 92.5556 212.183 102.962 212.1 113.367C212.057 115.405 211.8 117.434 211.333 119.418C210.276 124.148 206.928 126.852 202.622 128.343C196.534 130.45 190.283 130.481 184.157 128.59C178.382 126.807 175.144 122.63 174.384 116.622C174.112 114.441 173.972 112.246 173.964 110.047C173.919 100.922 173.945 91.7969 173.945 82.6716V82.1843C173.945 81.9229 174.049 81.6723 174.233 81.4875C174.417 81.3027 174.667 81.1989 174.928 81.1989H185.104C185.357 81.1989 185.6 81.2965 185.783 81.4714C185.966 81.6463 186.074 81.8851 186.086 82.1382C186.096 82.3454 186.103 82.5496 186.103 82.7539C186.106 92.3595 186.11 101.965 186.115 111.571C186.127 112.65 186.195 113.728 186.319 114.8C186.616 117.611 188.144 119.453 190.844 120.213C193.521 120.967 196.209 120.918 198.815 119.862C200.872 119.028 202.074 117.467 202.346 115.254C202.501 114.064 202.585 112.867 202.597 111.667C202.617 102.022 202.621 92.3764 202.608 82.7308C202.608 82.5466 202.608 82.3624 202.608 82.1704C202.608 81.9091 202.712 81.6584 202.896 81.4735C203.08 81.2887 203.33 81.1849 203.591 81.1848Z" fill="#811AC9"/>
<path d="M312.349 26.9116H319.5C319.818 26.9097 320.124 27.034 320.351 27.2576C320.578 27.4812 320.708 27.7858 320.712 28.1049C320.712 28.1088 320.712 28.1126 320.712 28.1165C320.699 38.4028 320.706 48.6893 320.639 58.9754C320.627 60.7243 320.384 62.4857 320.098 64.2163C319.275 69.1953 316.044 72.1238 311.597 73.9063C307.782 75.4352 303.765 75.7182 299.719 75.4795C297.77 75.3798 295.834 75.1051 293.934 74.6586C287.529 73.0944 283.621 68.5967 282.886 62.0534C282.683 60.2658 282.577 58.4685 282.569 56.6693C282.539 47.303 282.555 37.9365 282.555 28.5701V28.1491C282.555 27.9894 282.586 27.8313 282.647 27.6838C282.708 27.5363 282.798 27.4023 282.91 27.2894C283.023 27.1765 283.156 27.0869 283.303 27.0258C283.45 26.9647 283.608 26.9333 283.767 26.9333H293.396C293.717 26.9333 294.026 27.0614 294.253 27.2894C294.48 27.5174 294.608 27.8266 294.608 28.1491V28.495C294.608 37.4211 294.611 46.3472 294.617 55.2734C294.62 56.8313 294.686 58.3926 294.805 59.9461C295.07 63.4301 296.695 65.5074 300.13 66.0496C302.207 66.3684 304.324 66.3035 306.377 65.8581C309.605 65.1448 310.827 63.2014 311.096 59.3775C311.144 58.6998 311.135 58.0175 311.135 57.3373C311.138 47.6906 311.138 38.044 311.137 28.3974V28.1274C311.137 27.9678 311.168 27.8097 311.229 27.6621C311.29 27.5146 311.38 27.3806 311.492 27.2677C311.605 27.1548 311.738 27.0653 311.885 27.0042C312.032 26.9431 312.19 26.9116 312.349 26.9116Z" fill="#811AC9"/>
<path d="M219.78 73.848C219.814 73.9614 219.821 74.0813 219.801 74.198C219.781 74.3147 219.733 74.425 219.663 74.5201C219.592 74.6151 219.501 74.6923 219.395 74.7453C219.289 74.7984 219.173 74.8259 219.055 74.8256C215.528 74.8288 212.131 74.8438 208.736 74.7836C208.406 74.778 207.913 74.2428 207.792 73.8595C206.974 71.2719 206.207 68.6685 205.49 66.0494C205.253 65.1839 204.883 64.8354 203.937 64.8467C199.549 64.8991 195.161 64.8989 190.772 64.846C189.815 64.8343 189.462 65.2115 189.218 66.0604C188.459 68.708 187.652 71.3417 186.798 73.9615C186.684 74.3104 186.212 74.7809 185.897 74.7876C183.265 74.8441 180.631 74.8296 177.853 74.8259C177.736 74.8257 177.621 74.7984 177.517 74.7462C177.412 74.694 177.321 74.6183 177.251 74.525C177.18 74.4316 177.132 74.3232 177.11 74.2082C177.088 74.0932 177.093 73.9746 177.125 73.8619C177.271 73.337 177.41 72.8445 177.565 72.3573C182.258 57.6385 186.945 42.9181 191.628 28.1963C191.961 27.1443 192.41 26.7753 193.536 26.8025C197.044 26.8872 200.557 26.8542 204.067 26.8174C204.816 26.8096 205.189 27.0084 205.425 27.766C210.194 43.1289 214.978 58.4869 219.778 73.8402L219.78 73.848ZM202.197 55.0694C200.867 50.6642 199.563 46.3412 198.262 42.031L196.531 42.0311C195.229 46.3448 193.924 50.6702 192.597 55.0695C192.563 55.183 192.555 55.303 192.575 55.4198C192.596 55.5366 192.643 55.6471 192.713 55.7423C192.784 55.8376 192.875 55.915 192.981 55.9684C193.086 56.0218 193.203 56.0497 193.321 56.0499H201.472C201.591 56.0497 201.707 56.0218 201.813 55.9684C201.918 55.915 202.01 55.8375 202.08 55.7422C202.151 55.647 202.198 55.5365 202.218 55.4196C202.238 55.3028 202.231 55.1829 202.197 55.0694Z" fill="#811AC9"/>
<path d="M256.434 129.018C256.255 129.018 256.084 128.947 255.958 128.82C255.832 128.694 255.761 128.522 255.761 128.344C255.758 125.911 255.743 123.505 255.79 121.1C255.796 120.762 256.152 120.407 256.394 120.098C263.936 110.468 271.482 100.841 279.031 91.216L279.037 91.2077C279.114 91.1079 279.161 90.9885 279.174 90.863C279.187 90.7376 279.164 90.6111 279.108 90.4979C279.053 90.3847 278.967 90.2894 278.86 90.2229C278.753 90.1563 278.63 90.1211 278.504 90.1213H258.043C257.865 90.1213 257.694 90.0503 257.568 89.9238C257.442 89.7973 257.371 89.6257 257.371 89.4468V81.9082C257.371 81.8196 257.388 81.7319 257.422 81.65C257.456 81.5682 257.505 81.4938 257.568 81.4312C257.63 81.3686 257.705 81.3189 257.786 81.285C257.868 81.2511 257.955 81.2336 258.043 81.2336H292.892C292.981 81.2337 293.07 81.2516 293.152 81.2864C293.235 81.3212 293.309 81.372 293.372 81.4361C293.434 81.5001 293.484 81.576 293.517 81.6593C293.55 81.7427 293.566 81.8318 293.564 81.9215C293.541 83.2997 293.468 84.6984 293.601 86.0773C293.821 88.3697 293.069 90.1235 291.619 91.9188C284.433 100.81 277.386 109.814 270.292 118.78C270.277 118.799 270.263 118.818 270.248 118.837C270.171 118.936 270.124 119.056 270.111 119.181C270.098 119.307 270.121 119.433 270.176 119.547C270.232 119.66 270.318 119.755 270.424 119.822C270.531 119.889 270.654 119.924 270.78 119.924H293.568C293.747 119.924 293.918 119.995 294.044 120.122C294.17 120.248 294.241 120.42 294.241 120.599V128.343C294.241 128.522 294.17 128.694 294.044 128.82C293.918 128.947 293.747 129.018 293.568 129.018L256.434 129.018Z" fill="#811AC9"/>
<path d="M216.619 129.042C216.461 129.042 216.309 128.979 216.198 128.867C216.086 128.755 216.023 128.603 216.023 128.445C216.019 126.024 215.995 123.696 216.055 121.369C216.066 120.915 216.411 120.417 216.715 120.029C224.199 110.456 231.692 100.89 239.195 91.3313C239.253 91.2569 239.31 91.1817 239.368 91.1028C239.434 91.0138 239.474 90.9084 239.483 90.7981C239.493 90.6878 239.472 90.577 239.422 90.4781C239.372 90.3792 239.296 90.2961 239.202 90.238C239.109 90.1799 239 90.1491 238.89 90.1491H218.333C218.255 90.1491 218.178 90.1336 218.105 90.1036C218.033 90.0736 217.967 90.0295 217.912 89.9741C217.857 89.9186 217.813 89.8527 217.783 89.7802C217.753 89.7077 217.738 89.6301 217.738 89.5516V81.8055C217.738 81.727 217.753 81.6493 217.783 81.5768C217.813 81.5043 217.857 81.4385 217.912 81.383C217.967 81.3275 218.033 81.2835 218.105 81.2535C218.178 81.2235 218.255 81.208 218.333 81.208H253.206C253.364 81.2082 253.515 81.2712 253.627 81.3832C253.739 81.4952 253.801 81.647 253.801 81.8054C253.805 84.2731 253.823 86.7061 253.771 89.1376C253.763 89.5097 253.388 89.9014 253.123 90.2364C245.563 99.8002 237.998 109.361 230.429 118.918C230.36 119.006 230.317 119.111 230.304 119.222C230.292 119.333 230.312 119.445 230.36 119.545C230.408 119.646 230.484 119.73 230.578 119.79C230.673 119.849 230.782 119.88 230.893 119.88H253.863C254.021 119.88 254.172 119.943 254.284 120.055C254.396 120.167 254.459 120.319 254.459 120.478V128.445C254.459 128.603 254.396 128.755 254.284 128.867C254.172 128.979 254.021 129.042 253.863 129.042H216.619Z" fill="#811AC9"/>
<path d="M243.773 58.1336V73.6364C243.773 73.9523 243.648 74.2552 243.425 74.4785C243.203 74.7018 242.901 74.8273 242.586 74.8273C241.62 74.8273 240.689 74.8273 239.759 74.8273C237.763 74.8273 235.764 74.7668 233.772 74.8512C232.674 74.8978 232.361 74.5683 232.364 73.4515C232.401 58.9574 232.409 44.4633 232.388 29.9691V28.0283C232.387 27.7147 232.509 27.4134 232.729 27.1902C232.948 26.967 233.247 26.8401 233.56 26.8373C233.563 26.8373 233.567 26.8373 233.57 26.8373C240.355 26.8508 247.141 26.8269 253.926 26.9189C255.639 26.958 257.344 27.1842 259.008 27.5934C265.71 29.1871 270.27 35.7707 269.47 42.6389C269.291 44.1791 269.068 45.7464 268.596 47.2145C266.692 53.1462 261.907 56.6382 255.435 56.8476C252.085 56.956 248.73 56.9154 245.378 56.941C245.24 56.9418 245.101 56.9426 244.958 56.9426C244.644 56.9431 244.342 57.0688 244.12 57.2921C243.898 57.5154 243.773 57.8181 243.773 58.1336ZM243.44 46.87C243.44 47.1832 243.563 47.4837 243.782 47.7065C244.002 47.9293 244.3 48.0563 244.612 48.0602C247.547 48.0971 250.403 48.2399 253.224 47.9892C256.329 47.7134 258.222 45.1732 258.256 41.976C258.291 38.6736 256.481 36.1677 253.294 35.7956C250.459 35.4647 247.585 35.4802 244.657 35.402C244.499 35.3979 244.341 35.4256 244.194 35.4836C244.046 35.5415 243.912 35.6285 243.798 35.7395C243.685 35.8504 243.594 35.983 243.533 36.1294C243.471 36.2758 243.44 36.4331 243.44 36.592V46.87Z" fill="#811AC9"/>
<path d="M111.039 0C111.071 0.463859 111.132 0.931081 111.132 1.39834C111.138 9.95913 111.138 18.5199 111.132 27.0807C111.118 33.0615 106.898 37.066 100.816 36.7987C96.6189 36.6143 92.4214 36.6238 88.2232 36.8273C87.105 36.8816 86.7935 36.6077 86.7998 35.6077C86.8359 29.8474 86.7779 24.0864 86.8322 18.3264C86.8765 13.6349 88.7082 9.73126 92.2042 6.59075C96.9628 2.31619 105.224 0.265904 111.039 0Z" fill="#811AC9"/>
<path d="M254.559 140.276V145.126C253.407 145.126 252.321 145.175 251.246 145.091C250.974 145.07 250.596 144.663 250.507 144.362C250.241 143.467 249.682 143.219 248.827 143.309C248.323 143.363 247.787 143.233 247.304 143.348C246.917 143.441 246.369 143.711 246.271 144.023C245.891 145.231 245.092 145.282 243.964 145.008C245.081 142.426 246.132 139.851 247.341 137.354C247.522 136.981 248.446 136.97 249.042 136.787C250.251 139.577 251.373 142.165 252.495 144.753L252.729 144.739V137.1C253.835 136.782 254.547 136.898 255.169 137.817C256.173 139.297 257.317 140.677 258.585 141.937V137.015H260.194V145.004C259.212 145.351 258.482 145.122 257.847 144.192C256.903 142.808 255.837 141.508 254.823 140.173C254.735 140.207 254.647 140.241 254.559 140.276ZM247.161 141.849C248.028 141.8 248.609 141.767 249.329 141.726C248.97 140.881 248.691 140.225 248.3 139.305C247.886 140.227 247.583 140.905 247.161 141.849Z" fill="#811AC9"/>
<path d="M325.766 145.131V137.012H327.349V143.557C328.547 143.557 329.599 143.616 330.637 143.521C330.94 143.493 331.316 143.08 331.466 142.755C332.255 141.044 332.949 139.29 333.76 137.591C333.908 137.28 334.438 136.996 334.8 136.987C335.166 136.977 335.744 137.229 335.881 137.527C337.009 139.982 338.056 142.475 339.162 145.037C338.051 145.257 337.198 145.28 336.833 143.992C336.751 143.704 336.249 143.416 335.899 143.35C335.331 143.244 334.723 143.369 334.14 143.307C333.35 143.224 332.862 143.502 332.669 144.284C332.501 144.961 332.08 145.168 331.38 145.148C329.546 145.097 327.709 145.131 325.766 145.131ZM335.892 141.739C335.526 140.907 335.223 140.218 334.795 139.246C334.405 140.269 334.142 140.96 333.846 141.739H335.892Z" fill="#811AC9"/>
<path d="M234.668 137.068C236.892 136.736 236.891 136.736 237.751 138.577C238.179 139.495 238.611 140.41 239.135 141.527C239.651 140.456 240.069 139.59 240.485 138.723C241.381 136.855 241.38 136.855 243.638 136.995V145.038H241.966V140.456C241.865 140.429 241.765 140.403 241.665 140.377C241.1 141.509 240.561 142.657 239.952 143.765C239.796 144.047 239.413 144.376 239.14 144.372C238.859 144.367 238.483 144.037 238.326 143.751C237.696 142.606 237.134 141.422 236.295 140.321V145.045H234.668V137.068Z" fill="#811AC9"/>
<path d="M369.548 140.34V145.07H367.993V137.1C370.092 136.658 370.177 136.699 371.034 138.531C371.434 139.384 371.835 140.236 372.239 141.086C372.318 141.195 372.406 141.297 372.502 141.389C372.964 140.435 373.394 139.551 373.82 138.666C374.725 136.783 374.724 136.783 376.969 137.038V145.061H375.27V140.475C375.181 140.444 375.092 140.413 375.003 140.382C374.45 141.462 373.924 142.557 373.33 143.614C373.149 143.937 372.744 144.398 372.505 144.363C372.149 144.309 371.74 143.934 371.546 143.587C370.939 142.507 370.423 141.375 369.872 140.264C369.764 140.289 369.656 140.314 369.548 140.34Z" fill="#811AC9"/>
<path d="M290.959 136.985H293.298V145.062H291.623V140.46C291.517 140.433 291.411 140.406 291.304 140.379C290.755 141.476 290.235 142.59 289.637 143.66C289.461 143.977 289.059 144.373 288.772 144.364C288.467 144.354 288.076 143.962 287.898 143.639C287.283 142.528 286.744 141.374 285.947 140.302V145.04H284.328V137.085C286.496 136.709 286.495 136.71 287.382 138.584C287.811 139.49 288.245 140.393 288.786 141.527C289.589 139.848 290.276 138.413 290.959 136.985Z" fill="#811AC9"/>
<path d="M168.009 137.053C168.957 136.751 169.622 136.977 170.204 137.823C171.194 139.263 172.301 140.623 173.577 142.304V137.022H175.274V145.023C174.172 145.365 173.428 145.034 172.788 144.076C171.858 142.696 170.794 141.412 169.61 140.244V145.051H168.009V137.053Z" fill="#811AC9"/>
<path d="M139.78 145.035C138.664 145.34 137.91 145.041 137.273 144.068C136.359 142.697 135.304 141.427 134.123 140.279V145.054H132.48V137.048C133.517 136.711 134.181 137.074 134.772 137.93C135.726 139.313 136.794 140.617 138.048 142.26V137.019H139.78L139.78 145.035Z" fill="#811AC9"/>
<path d="M307.175 141.872V137.005H308.721V145.006C307.699 145.357 306.976 145.085 306.348 144.168C305.388 142.764 304.304 141.45 303.108 140.242V145.064H301.421V137.062C302.448 136.718 303.152 137.023 303.772 137.93C304.735 139.339 305.82 140.663 306.853 142.023C306.96 141.973 307.067 141.922 307.175 141.872Z" fill="#811AC9"/>
<path d="M196.196 142.272C196.828 143.192 197.422 144.057 198.076 145.009C196.797 145.299 195.854 145.231 195.199 143.944C194.788 143.136 194.338 142.035 192.879 142.651V145.063H191.196V136.893C192.684 136.964 194.153 136.992 195.613 137.117C196.577 137.2 197.346 137.681 197.57 138.705C197.824 139.862 197.796 140.979 196.787 141.83C196.616 141.975 196.428 142.1 196.196 142.272ZM192.916 141.265C194.013 140.909 194.94 140.69 195.769 140.274C195.94 140.188 195.879 139.02 195.696 138.949C194.85 138.624 193.923 138.51 192.916 138.297V141.265Z" fill="#811AC9"/>
<path d="M365.289 142.267C365.951 143.221 366.548 144.08 367.209 145.033C365.884 145.284 364.927 145.199 364.287 143.911C363.882 143.096 363.408 142.028 361.965 142.659V145.079H360.29V136.894C361.783 136.96 363.219 136.98 364.646 137.101C365.649 137.186 366.46 137.657 366.69 138.743C366.935 139.908 366.891 141.018 365.864 141.852C365.714 141.975 365.549 142.08 365.289 142.267ZM362.071 138.257V141.235C363.123 140.918 364.038 140.729 364.851 140.331C365.035 140.242 365.011 139.08 364.834 139.005C363.998 138.652 363.076 138.505 362.071 138.257Z" fill="#811AC9"/>
<path d="M221.498 145.156C219.05 145.16 217.192 143.362 217.201 140.997C217.218 139.869 217.676 138.793 218.477 138.001C219.278 137.208 220.356 136.763 221.481 136.761C222.606 136.759 223.686 137.2 224.49 137.989C225.294 138.778 225.756 139.852 225.778 140.98C225.777 143.37 223.95 145.152 221.498 145.156ZM219.006 141.032C219.018 142.521 220.16 143.725 221.541 143.707C222.906 143.689 224.022 142.438 224.001 140.95C223.98 139.458 222.842 138.265 221.459 138.283C220.078 138.301 218.993 139.517 219.006 141.032Z" fill="#811AC9"/>
<path d="M355.202 145.156C352.726 145.157 350.933 143.382 350.955 140.952C350.976 138.608 352.79 136.801 355.161 136.762C355.722 136.743 356.28 136.838 356.803 137.041C357.325 137.244 357.801 137.552 358.202 137.945C358.603 138.338 358.921 138.808 359.135 139.327C359.35 139.846 359.458 140.404 359.452 140.966C359.457 143.435 357.711 145.156 355.202 145.156ZM352.738 141.042C352.755 142.555 353.91 143.753 355.304 143.706C356.631 143.661 357.716 142.446 357.725 140.996C357.735 139.505 356.589 138.275 355.199 138.284C353.801 138.293 352.721 139.503 352.738 141.042Z" fill="#811AC9"/>
<path d="M207.449 141.885C207.241 142.371 207.073 142.764 206.871 143.238C207.169 143.587 207.494 143.968 207.868 144.405C207.574 144.718 207.284 145.027 206.917 145.418C206.263 144.539 205.595 144.626 204.64 145.006C202.575 145.827 200.406 144.472 200.725 142.632C200.863 141.834 201.568 141.134 202.094 140.26C201.414 138.572 201.523 137.737 202.625 137.122C203.749 136.494 205.428 136.777 206.045 137.697C206.652 138.602 206.328 139.423 204.736 140.896C205.018 141.242 205.303 141.592 205.659 142.028C205.904 141.633 206.074 141.359 206.269 141.045C206.661 141.324 207.009 141.572 207.449 141.885ZM203.258 141.615C202.257 142.368 202.065 142.909 202.55 143.447C203.067 144.02 203.937 143.907 204.663 143.137C204.194 142.629 203.723 142.118 203.258 141.615ZM204.086 140.039C204.301 139.306 204.438 138.842 204.574 138.378C204.261 138.322 203.836 138.108 203.653 138.237C202.916 138.756 203.424 139.219 204.086 140.039Z" fill="#811AC9"/>
<path d="M296.31 141.77V143.549H300.447V145.041H294.581V137.01H300.268V138.45H296.356V140.303C297.275 140.303 298.2 140.322 299.124 140.296C299.701 140.28 300.115 140.471 299.935 141.082C299.862 141.247 299.75 141.393 299.61 141.507C299.47 141.622 299.305 141.701 299.129 141.739C298.24 141.826 297.337 141.77 296.31 141.77Z" fill="#811AC9"/>
<path d="M212.223 145.096H210.694V136.991H212.359V140.025C212.445 140.061 212.53 140.097 212.616 140.133C213.266 139.431 213.996 138.786 214.547 138.014C215.294 136.968 216.236 136.76 217.568 137.046C216.51 138.249 215.516 139.379 214.475 140.563C215.51 142.036 216.518 143.472 217.607 145.023C216.464 145.245 215.578 145.266 214.948 144.168C214.522 143.425 213.935 142.774 213.362 142.003C211.827 142.579 212.604 144.002 212.223 145.096Z" fill="#811AC9"/>
<path d="M184.471 136.978H190.147C190.169 137.423 190.192 137.867 190.222 138.466H186.146V140.25H189.736V141.784H186.132V143.534H190.239V145.04H184.471L184.471 136.978Z" fill="#811AC9"/>
<path d="M161.141 137.005H166.798V138.49H162.817V140.27H166.436V141.724H162.845V143.52H166.887V145.054H161.141L161.141 137.005Z" fill="#811AC9"/>
<path d="M283.182 137.024V138.491H279.189V140.278H282.761V141.768H279.174V143.518H283.263V145.072H277.514V137.024H283.182Z" fill="#811AC9"/>
<path d="M269.208 145.041C268.048 145.263 267.196 145.25 266.877 143.984C266.806 143.702 266.289 143.401 265.943 143.351C265.244 143.253 264.535 143.252 263.837 143.349C263.486 143.398 262.963 143.685 262.887 143.965C262.555 145.182 261.765 145.32 260.598 145.021C260.932 144.226 261.266 143.42 261.608 142.618C262.283 141.032 262.971 139.452 263.633 137.86C263.872 137.286 264.105 136.897 264.879 136.904C265.64 136.911 265.88 137.277 266.125 137.857C267.127 140.234 268.157 142.6 269.208 145.041ZM264.867 139.246C264.471 140.233 264.193 140.925 263.878 141.708H265.931C265.58 140.896 265.294 140.234 264.867 139.246Z" fill="#811AC9"/>
<path d="M276.182 137.94C275.908 138.328 275.665 138.674 275.381 139.077C275.075 138.928 274.807 138.792 274.534 138.666C273.422 138.151 272.262 138.312 271.501 139.128C270.659 140.032 270.594 141.101 271.025 142.195C271.479 143.348 272.419 143.682 273.591 143.611C274.436 143.56 274.93 143.265 274.831 142.322C274.791 141.942 274.825 141.555 274.825 141.093H276.306C276.932 143.414 276.554 144.396 274.825 144.964C272.478 145.736 270.034 144.692 269.255 142.585C268.558 140.701 269.156 138.697 270.755 137.557C272.364 136.409 274.425 136.521 276.182 137.94Z" fill="#811AC9"/>
<path d="M153.089 136.975H154.704C154.704 138.246 154.695 139.491 154.708 140.736C154.687 141.245 154.722 141.756 154.811 142.258C155.009 143.106 155.568 143.665 156.469 143.65C157.353 143.634 157.992 143.134 158.08 142.236C158.201 140.99 158.196 139.732 158.236 138.479C158.251 138.016 158.238 137.551 158.238 137.017H159.767C159.767 138.93 159.953 140.894 159.712 142.804C159.498 144.497 158.027 145.265 156.05 145.153C154.519 145.067 153.255 144.046 153.123 142.459C152.975 140.675 153.089 138.87 153.089 136.975Z" fill="#811AC9"/>
<path d="M320.231 145.095H318.747V136.868C320.187 136.96 321.595 136.945 322.964 137.168C324.416 137.404 325.012 138.32 325.016 139.871C325.02 141.468 324.461 142.245 323.023 142.636C322.835 142.691 322.644 142.733 322.451 142.761C321.768 142.848 320.879 142.696 320.462 143.073C320.106 143.394 320.294 144.319 320.231 145.095ZM320.306 138.511C320.306 139.052 320.307 139.435 320.306 139.819C320.303 141.394 320.611 141.615 322.16 141.279C323.038 141.089 323.25 140.518 323.234 139.736C323.219 138.974 322.803 138.581 322.088 138.52C321.554 138.475 321.014 138.511 320.306 138.511Z" fill="#811AC9"/>
<path d="M183.647 138.297C183.284 138.714 182.979 139.064 182.677 139.411C181.06 138.21 179.519 138.165 178.525 139.256C177.689 140.174 177.669 141.761 178.481 142.727C179.435 143.861 180.838 143.847 182.626 142.642C182.951 142.943 183.288 143.253 183.596 143.538C182.392 145.536 179.105 145.656 177.465 144.169C175.773 142.633 175.634 139.824 177.215 138.127C178.925 136.291 181.742 136.33 183.647 138.297Z" fill="#811AC9"/>
<path d="M142.941 140.392H146.419C146.445 140.919 146.463 141.296 146.489 141.816H142.902V145.078H141.184V137.007H146.637V138.523H142.941L142.941 140.392Z" fill="#811AC9"/>
<path d="M345.138 136.975H350.508V138.463H346.987C346.463 140.179 346.613 140.401 348.174 140.408C348.761 140.412 349.349 140.415 349.936 140.427C350.075 140.446 350.213 140.478 350.346 140.522V141.836H346.801V145.038H345.138V136.975Z" fill="#811AC9"/>
<path d="M342.218 145.081H340.433V138.543C339.652 138.489 339.003 138.443 338.274 138.393V137.023H344.487V138.409C343.771 138.442 343.076 138.473 342.218 138.513V145.081Z" fill="#811AC9"/>
<path d="M313.496 145.093H311.803C311.803 143.466 311.803 141.87 311.803 140.273C311.803 138.553 311.802 138.554 310.077 138.455C309.905 138.433 309.735 138.402 309.568 138.36V137.014H315.739V138.404C315.017 138.444 314.325 138.483 313.496 138.529V145.093Z" fill="#811AC9"/>
<path d="M147.52 145.062V137.002H149.106V143.531H152.573V145.062H147.52Z" fill="#811AC9"/>
<path d="M226.622 145.052V137.011H228.187V143.515H231.655V145.052H226.622Z" fill="#811AC9"/>
<path d="M131.095 145.071H129.48V137.027H131.095V145.071Z" fill="#811AC9"/>
</svg>
